<svg viewBox="0 0 256 256" xmlns="http://www.w3.org/2000/svg"><path fill="none" d="M0 0h256v256H0z"></path><path d="M223.8 170.7a7.8 7.8 0 0 0-5.9-2.7H208V64a32.1 32.1 0 0 0-32-32H40A32.1 32.1 0 0 0 8 64a31.5 31.5 0 0 0 8.2 21.3 7.9 7.9 0 0 0 11.2.7 8 8 0 0 0 .7-11.3A16 16 0 1 1 56 64v128a32.1 32.1 0 0 0 32 32h112a32.1 32.1 0 0 0 32-32 31.5 31.5 0 0 0-8.2-21.3ZM104 96h64a8 8 0 0 1 0 16h-64a8 8 0 0 1 0-16Zm-8 40a8 8 0 0 1 8-8h64a8 8 0 0 1 0 16h-64a8 8 0 0 1-8-8Zm104 72h-84.3a32.2 32.2 0 0 0 4.3-16 30.8 30.8 0 0 0-1-8h94.9a16.1 16.1 0 0 1-13.9 24Z" fill="#5915df" class="fill-000000"></path></svg>